<?xml version="1.0" standalone="no"?>
<!DOCTYPE svg PUBLIC "-//W3C//DTD SVG 20010904//EN"
 "http://www.w3.org/TR/2001/REC-SVG-20010904/DTD/svg10.dtd">
<svg version="1.0" xmlns="http://www.w3.org/2000/svg"
 width="771.000000pt" height="1280.000000pt" viewBox="0 0 771.000000 1280.000000"
 preserveAspectRatio="xMidYMid meet">
<g transform="translate(0.000000,1280.000000) scale(0.100000,-0.100000)">
<path d="M3595 12790 c-44 -4 -147 -13 -230 -20 -583 -44 -1139 -192 -1607
-425 -354 -177 -604 -357 -883 -639 -302 -304 -505 -608 -660 -988 -164 -406
-241 -896 -197 -1258 51 -418 170 -738 371 -997 263 -339 611 -525 1051 -564
119 -10 305 -5 314 9 8 14 46 334 55 472 19 277 -17 380 -252 720 -124 178
-184 290 -235 441 -184 533 -168 1035 43 1448 247 483 710 785 1368 893 112
19 174 22 402 22 241 1 283 -2 390 -22 388 -74 683 -221 924 -463 294 -293
454 -700 385 -976 l-16 -63 48 -67 c27 -37 124 -162 216 -278 288 -359 348
-468 304 -553 -30 -58 -146 -126 -235 -138 -59 -8 -101 -36 -101 -67 0 -37 40
-150 65 -187 55 -80 50 -128 -20 -186 -25 -20 -45 -42 -45 -48 0 -7 12 -23 26
-37 29 -27 54 -70 54 -93 0 -9 -15 -33 -34 -53 -99 -111 -104 -142 -49 -307
30 -90 37 -126 37 -192 1 -79 0 -83 -38 -139 -103 -149 -218 -185 -603 -185
l-192 0 -17 -32 c-9 -18 -90 -150 -179 -293 -188 -302 -259 -427 -354 -626
-249 -521 -403 -1065 -471 -1658 -20 -180 -44 -608 -38 -706 l3 -60 417 -3
c390 -2 418 -1 426 15 5 10 12 67 16 127 3 60 15 173 27 250 102 706 374 1188
933 1654 164 137 365 281 741 530 748 497 980 674 1235 938 469 487 680 996
717 1729 12 234 -57 674 -147 945 -432 1285 -1847 2105 -3685 2135 -110 2
-236 0 -280 -5z"/>
<path d="M3440 3046 c-234 -41 -408 -110 -595 -234 -263 -174 -463 -427 -576
-728 -211 -560 -91 -1167 316 -1593 283 -296 641 -459 1072 -488 123 -9 412
43 564 100 512 193 878 637 970 1178 28 161 23 419 -11 574 -114 533 -463 943
-950 1120 -169 61 -267 77 -500 81 -149 2 -238 -1 -290 -10z"/>
</g>
</svg>
