<?xml version="1.0" encoding="iso-8859-1"?>
<!-- Generator: Adobe Illustrator 16.0.0, SVG Export Plug-In . SVG Version: 6.00 Build 0)  -->
<!DOCTYPE svg PUBLIC "-//W3C//DTD SVG 1.1//EN" "http://www.w3.org/Graphics/SVG/1.1/DTD/svg11.dtd">
<svg version="1.1" id="Capa_1" xmlns="http://www.w3.org/2000/svg" xmlns:xlink="http://www.w3.org/1999/xlink" x="0px" y="0px"
	 width="362.665px" height="362.665px" viewBox="0 0 362.665 362.665" style="enable-background:new 0 0 362.665 362.665;"
	 xml:space="preserve">
<g>
	<g>
		<path d="M286.609,221.12c0.99-11.396-1.729-21.047-8.112-28.69c-9.38-11.22-23.875-14.73-30.036-15.757
			c-4.077-10.325-10.143-16.942-18.021-19.684c-5.692-1.976-12.322-1.777-18.999,0.546c1.345-30.357,5.309-125.008,3.314-138.165
			c-1.087-6.962-8.695-18.2-17.762-19.272C196.519,0.045,196.014,0,195.498,0c-4.446,0-10.742,2.456-15.51,14.162
			c-2.231,6.449-4.642,28.586-7.698,56.619l-0.066,0.472c-3.008,27.522-7.968,72.898-12.321,87.378
			c-6.188-14.795-12.872-59.688-16.916-86.892c-3.954-26.58-5.068-33.233-6.593-35.861c-2.429-7.98-11.8-19.047-21.65-19.047
			c-0.265,0-0.535,0.006-0.805,0.024c-6.653,0.405-15.027,5.92-17.156,29.976c6.983,91.994,9.599,142.746,10.091,152.864
			c-7.692,5.62-17.249,15.312-19.149,17.275c-16.976,18.766-13.854,34.312-10.479,41.896c0.015,0.024,1.525,3.351,2.732,4.738
			c18.816,32.924,57.006,75.828,57.382,76.219c5.194,4.455,7.974,8.593,8.061,11.968c0.03,2.186-1.144,3.417-1.219,3.477
			l-1.045,0.961l5.744,6.437l114.007-0.084l6.257-21.725C294.247,292.974,287.461,228.218,286.609,221.12z"/>
	</g>
</g>
<g>
</g>
<g>
</g>
<g>
</g>
<g>
</g>
<g>
</g>
<g>
</g>
<g>
</g>
<g>
</g>
<g>
</g>
<g>
</g>
<g>
</g>
<g>
</g>
<g>
</g>
<g>
</g>
<g>
</g>
</svg>
